<?xml version="1.0" encoding="UTF-8" standalone="no"?>
<!DOCTYPE svg PUBLIC "-//W3C//DTD SVG 1.1//EN" "http://www.w3.org/Graphics/SVG/1.1/DTD/svg11.dtd">
<svg width="32.00" height="16.00" viewBox="0.00 0.00 200.00 100.00" xmlns="http://www.w3.org/2000/svg" xmlns:xlink="http://www.w3.org/1999/xlink">
<g stroke-linecap="round" id="FIll_vector">
<path d="M51.19,94.58 L76.91,89.76" fill="none" stroke="rgb(255, 96, 0)" stroke-width="7.00" stroke-opacity="1.00" stroke-linejoin="round"/>
<path d="M75.76,89.76 L75.76,9.87" fill="none" stroke="rgb(255, 96, 0)" stroke-width="7.00" stroke-opacity="1.00" stroke-linejoin="round"/>
<path d="M75.07,10.10 L52.34,6.20" fill="none" stroke="rgb(255, 96, 0)" stroke-width="7.00" stroke-opacity="1.00" stroke-linejoin="round"/>
<path d="M53.26,6.20 L53.26,90.91" fill="none" stroke="rgb(255, 96, 0)" stroke-width="7.00" stroke-opacity="1.00" stroke-linejoin="round"/>
<path d="M56.70,10.79 L56.70,84.94" fill="none" stroke="rgb(255, 96, 0)" stroke-width="20.50" stroke-opacity="1.00" stroke-linejoin="round"/>
<path d="M67.95,87.01 L67.95,18.37" fill="none" stroke="rgb(255, 96, 0)" stroke-width="20.50" stroke-opacity="1.00" stroke-linejoin="round"/>
<path d="M112.26,16.30 L135.67,20.43" fill="none" stroke="rgb(255, 96, 0)" stroke-width="7.50" stroke-opacity="1.00" stroke-linejoin="round"/>
<path d="M135.90,22.27 L135.90,80.35" fill="none" stroke="rgb(255, 96, 0)" stroke-width="7.50" stroke-opacity="1.00" stroke-linejoin="round"/>
<path d="M137.28,79.66 L113.87,84.25" fill="none" stroke="rgb(255, 96, 0)" stroke-width="7.50" stroke-opacity="1.00" stroke-linejoin="round"/>
<path d="M114.10,83.56 L114.10,19.05" fill="none" stroke="rgb(255, 96, 0)" stroke-width="7.50" stroke-opacity="1.00" stroke-linejoin="round"/>
<path d="M117.31,18.37 L117.31,80.35" fill="none" stroke="rgb(255, 96, 0)" stroke-width="12.70" stroke-opacity="1.00" stroke-linejoin="round"/>
<path d="M124.66,19.74 L124.66,77.82" fill="none" stroke="rgb(255, 96, 0)" stroke-width="12.70" stroke-opacity="1.00" stroke-linejoin="round"/>
<path d="M132.69,21.12 L132.69,76.22" fill="none" stroke="rgb(255, 96, 0)" stroke-width="12.70" stroke-opacity="1.00" stroke-linejoin="round"/>
<path d="M172.41,23.65 L172.41,73.00" fill="none" stroke="rgb(255, 96, 0)" stroke-width="12.70" stroke-opacity="1.00" stroke-linejoin="round"/>
<path d="M176.08,73.00 L192.38,69.10" fill="none" stroke="rgb(255, 96, 0)" stroke-width="12.70" stroke-opacity="1.00" stroke-linejoin="round"/>
<path d="M191.92,27.78 L191.92,65.66" fill="none" stroke="rgb(255, 96, 0)" stroke-width="12.70" stroke-opacity="1.00" stroke-linejoin="round"/>
<path d="M176.31,25.71 L190.31,28.70" fill="none" stroke="rgb(255, 96, 0)" stroke-width="12.70" stroke-opacity="1.00" stroke-linejoin="round"/>
<path d="M181.59,33.06 L181.59,64.51" fill="none" stroke="rgb(255, 96, 0)" stroke-width="12.70" stroke-opacity="1.00" stroke-linejoin="round"/>
<path d="M143.25,21.35 L143.25,78.05" fill="none" stroke="rgb(255, 255, 255)" stroke-width="12.70" stroke-opacity="1.00" stroke-linejoin="round"/>
<path d="M144.40,79.66 L162.99,74.61" fill="none" stroke="rgb(255, 255, 255)" stroke-width="12.70" stroke-opacity="1.00" stroke-linejoin="round"/>
<path d="M164.14,75.99 L161.62,26.40" fill="none" stroke="rgb(255, 255, 255)" stroke-width="12.70" stroke-opacity="1.00" stroke-linejoin="round"/>
<path d="M147.84,22.04 L163.91,25.48" fill="none" stroke="rgb(255, 255, 255)" stroke-width="12.70" stroke-opacity="1.00" stroke-linejoin="round"/>
<path d="M151.29,26.63 L151.29,69.10" fill="none" stroke="rgb(255, 255, 255)" stroke-width="12.70" stroke-opacity="1.00" stroke-linejoin="round"/>
<path d="M156.80,51.65 L156.80,76.45" fill="none" stroke="rgb(255, 255, 255)" stroke-width="12.70" stroke-opacity="1.00" stroke-linejoin="round"/>
<path d="M83.79,11.48 L83.79,87.70" fill="none" stroke="rgb(255, 255, 255)" stroke-width="12.70" stroke-opacity="1.00" stroke-linejoin="round"/>
<path d="M85.86,87.92 L103.31,84.02" fill="none" stroke="rgb(255, 255, 255)" stroke-width="12.70" stroke-opacity="1.00" stroke-linejoin="round"/>
<path d="M104.45,84.94 L104.45,16.53" fill="none" stroke="rgb(255, 255, 255)" stroke-width="12.70" stroke-opacity="1.00" stroke-linejoin="round"/>
<path d="M85.17,11.94 L101.70,17.22" fill="none" stroke="rgb(255, 255, 255)" stroke-width="12.70" stroke-opacity="1.00" stroke-linejoin="round"/>
<path d="M93.43,20.66 L93.43,81.04" fill="none" stroke="rgb(255, 255, 255)" stroke-width="12.70" stroke-opacity="1.00" stroke-linejoin="round"/>
<path d="M49.59,99.17 L49.59,-5.37" fill="none" stroke="rgb(229, 24, 0)" stroke-width="7.00" stroke-opacity="1.00" stroke-linejoin="round"/>
<path d="M197.52,74.17 L51.86,98.14" fill="none" stroke="rgb(229, 24, 0)" stroke-width="7.00" stroke-opacity="1.00" stroke-linejoin="round"/>
<path d="M196.90,74.17 L196.90,24.38" fill="none" stroke="rgb(229, 24, 0)" stroke-width="7.00" stroke-opacity="1.00" stroke-linejoin="round"/>
<path d="M197.31,24.59 L50.41,2.27" fill="none" stroke="rgb(229, 24, 0)" stroke-width="7.00" stroke-opacity="1.00" stroke-linejoin="round"/>
<path d="M79.96,6.82 L79.96,91.74" fill="none" stroke="rgb(229, 24, 0)" stroke-width="7.00" stroke-opacity="1.00" stroke-linejoin="round"/>
<path d="M110.12,11.57 L110.12,86.57" fill="none" stroke="rgb(229, 24, 0)" stroke-width="7.00" stroke-opacity="1.00" stroke-linejoin="round"/>
<path d="M140.08,16.53 L140.08,82.23" fill="none" stroke="rgb(229, 24, 0)" stroke-width="7.00" stroke-opacity="1.00" stroke-linejoin="round"/>
<path d="M168.80,19.83 L168.80,77.48" fill="none" stroke="rgb(229, 24, 0)" stroke-width="7.00" stroke-opacity="1.00" stroke-linejoin="round"/>
<path d="M1.65,50.00 L49.17,99.38" fill="none" stroke="rgb(229, 24, 0)" stroke-width="7.00" stroke-opacity="1.00" stroke-linejoin="round"/>
<path d="M1.24,50.00 L47.31,1.45" fill="none" stroke="rgb(229, 24, 0)" stroke-width="7.00" stroke-opacity="1.00" stroke-linejoin="round"/>
<path d="M1.24,49.59 L48.55,35.33" fill="none" stroke="rgb(229, 24, 0)" stroke-width="7.00" stroke-opacity="1.00" stroke-linejoin="round"/>
<path d="M1.86,49.38 L49.59,66.53" fill="none" stroke="rgb(229, 24, 0)" stroke-width="7.00" stroke-opacity="1.00" stroke-linejoin="round"/>
<path d="M5.37,45.04 C7.24,45.08 9.88,47.72 9.92,49.59 C9.88,51.46 7.24,54.10 5.37,54.13 C3.50,54.10 0.86,51.46 0.83,49.59 C0.86,47.72 3.50,45.08 5.37,45.04 Z" fill="none" stroke="rgb(0, 0, 0)" stroke-width="7.50" stroke-opacity="1.00" stroke-linejoin="round"/>
<path d="M4.13,48.14 L5.58,51.65" fill="none" stroke="rgb(0, 0, 0)" stroke-width="7.00" stroke-opacity="1.00" stroke-linejoin="round"/>
</g>
</svg>
